<?xml version="1.0" standalone="no"?>
<!DOCTYPE svg PUBLIC "-//W3C//DTD SVG 20010904//EN"
 "http://www.w3.org/TR/2001/REC-SVG-20010904/DTD/svg10.dtd">
<svg version="1.0" xmlns="http://www.w3.org/2000/svg"
 width="700.000000pt" height="700.000000pt" viewBox="0 0 700.000000 700.000000"
 preserveAspectRatio="xMidYMid meet">
<metadata>
Created by potrace 1.14, written by Peter Selinger 2001-2017
</metadata>
<g transform="translate(0.000000,700.000000) scale(0.100000,-0.100000)"
fill="#000000" stroke="none">
<path d="M489 5835 c-61 -19 -136 -87 -165 -150 -28 -60 -32 -165 -9 -221 24
-58 70 -108 127 -140 l53 -29 1188 -3 c653 -1 1187 -4 1187 -6 0 -2 -90 -188
-200 -412 l-199 -409 -633 -5 -633 -5 -57 -28 c-107 -53 -164 -151 -156 -271
2 -34 12 -79 24 -101 19 -38 2061 -2762 2111 -2816 14 -15 48 -39 76 -55 44
-24 63 -28 127 -28 64 0 83 4 127 28 29 16 61 38 72 50 57 62 1590 2099 1613
2145 46 89 36 169 -68 514 -5 16 8 17 184 17 211 0 251 8 314 63 41 36 1078
1422 1105 1477 9 19 19 67 21 106 5 93 -21 157 -90 219 -88 79 -18 75 -1213
75 -1203 0 -1129 5 -1217 -78 -47 -44 -85 -116 -585 -1117 -590 -1180 -564
-1119 -529 -1240 14 -45 29 -69 70 -110 107 -108 267 -113 380 -14 43 38 82
111 536 1020 l490 979 660 0 c363 0 660 -2 660 -5 0 -3 -135 -186 -300 -408
l-300 -402 -308 -6 c-224 -4 -318 -9 -347 -19 -62 -22 -150 -115 -169 -180 -9
-30 -16 -68 -16 -85 0 -17 36 -161 81 -319 44 -159 79 -297 77 -306 -3 -18
-1238 -1659 -1248 -1659 -5 0 -1492 1976 -1498 1991 -2 4 198 9 445 10 422 3
450 4 488 23 84 42 94 58 469 826 326 668 359 740 363 795 10 115 -47 217
-151 272 l-51 27 -1430 2 c-1212 1 -1437 0 -1476 -12z"/>
</g>
</svg>
